<?xml version="1.0" encoding="UTF-8" standalone="no"?>
<!DOCTYPE svg PUBLIC "-//W3C//DTD SVG 1.1//EN"
 "http://www.w3.org/Graphics/SVG/1.1/DTD/svg11.dtd">
<!-- Generated by graphviz version 2.38.0 (20140413.2041)
 -->
<!-- Title: G Pages: 1 -->
<svg width="978pt" height="664pt"
 viewBox="0.00 0.00 978.50 664.00" xmlns="http://www.w3.org/2000/svg" xmlns:xlink="http://www.w3.org/1999/xlink">
<g id="graph0" class="graph" transform="scale(1 1) rotate(0) translate(4 660)">
<title>G</title>
<polygon fill="white" stroke="none" points="-4,4 -4,-660 974.496,-660 974.496,4 -4,4"/>
<g id="clust1" class="cluster"><title>cluster_input</title>
<polygon fill="none" stroke="black" points="538.496,-574 538.496,-648 830.496,-648 830.496,-574 538.496,-574"/>
<text text-anchor="middle" x="684.496" y="-632.8" font-family="Times,serif" font-size="14.00">MyProject input files</text>
</g>
<g id="clust2" class="cluster"><title>cluster_web</title>
<polygon fill="none" stroke="black" points="876.496,-164 876.496,-238 962.496,-238 962.496,-164 876.496,-164"/>
<text text-anchor="middle" x="919.496" y="-222.8" font-family="Times,serif" font-size="14.00">Web</text>
</g>
<g id="clust3" class="cluster"><title>cluster_editors</title>
<polygon fill="none" stroke="black" points="378.496,-164 378.496,-238 664.496,-238 664.496,-164 378.496,-164"/>
<text text-anchor="middle" x="521.496" y="-222.8" font-family="Times,serif" font-size="14.00">editors</text>
</g>
<g id="clust4" class="cluster"><title>cluster_build_level</title>
<polygon fill="none" stroke="black" points="295.496,-354 295.496,-542 797.496,-542 797.496,-354 295.496,-354"/>
<text text-anchor="middle" x="546.496" y="-526.8" font-family="Times,serif" font-size="14.00">build&#45;level tools</text>
</g>
<g id="clust5" class="cluster"><title>cluster_build</title>
<polygon fill="none" stroke="black" points="377.496,-362 377.496,-436 631.496,-436 631.496,-362 377.496,-362"/>
<text text-anchor="middle" x="504.496" y="-420.8" font-family="Times,serif" font-size="14.00">build tools</text>
</g>
<!-- pulp -->
<g id="node1" class="node"><title>pulp</title>
<polygon fill="#fddbc7" stroke="black" points="527.496,-512 473.496,-512 473.496,-476 527.496,-476 527.496,-512"/>
<text text-anchor="middle" x="500.496" y="-489.8" font-family="Times,serif" font-size="14.00">pulp</text>
</g>
<!-- psc -->
<g id="node2" class="node"><title>psc</title>
<polygon fill="#fddbc7" stroke="black" points="535.496,-406 481.496,-406 481.496,-370 535.496,-370 535.496,-406"/>
<text text-anchor="middle" x="508.496" y="-383.8" font-family="Times,serif" font-size="14.00">psc</text>
</g>
<!-- pulp&#45;&gt;psc -->
<g id="edge24" class="edge"><title>pulp&#45;&gt;psc</title>
<path fill="none" stroke="black" stroke-dasharray="5,2" d="M501.817,-475.827C503.062,-459.643 504.948,-435.131 506.398,-416.273"/>
<polygon fill="black" stroke="black" points="509.896,-416.438 507.173,-406.199 502.916,-415.901 509.896,-416.438"/>
</g>
<!-- psc_make -->
<g id="node3" class="node"><title>psc_make</title>
<polygon fill="#fddbc7" stroke="black" points="623.139,-406 553.854,-406 553.854,-370 623.139,-370 623.139,-406"/>
<text text-anchor="middle" x="588.496" y="-383.8" font-family="Times,serif" font-size="14.00">psc&#45;make</text>
</g>
<!-- pulp&#45;&gt;psc_make -->
<g id="edge25" class="edge"><title>pulp&#45;&gt;psc_make</title>
<path fill="none" stroke="black" stroke-dasharray="5,2" d="M507.68,-475.996C512.651,-465.765 520.067,-453.019 529.496,-444 534.956,-438.777 538.5,-440.597 544.496,-436 552.704,-429.707 560.726,-421.822 567.626,-414.32"/>
<polygon fill="black" stroke="black" points="570.613,-416.226 574.627,-406.421 565.374,-411.583 570.613,-416.226"/>
</g>
<!-- psc_docs -->
<g id="node5" class="node"><title>psc_docs</title>
<polygon fill="#fddbc7" stroke="black" points="367.982,-406 303.01,-406 303.01,-370 367.982,-370 367.982,-406"/>
<text text-anchor="middle" x="335.496" y="-383.8" font-family="Times,serif" font-size="14.00">psc&#45;docs</text>
</g>
<!-- pulp&#45;&gt;psc_docs -->
<g id="edge26" class="edge"><title>pulp&#45;&gt;psc_docs</title>
<path fill="none" stroke="black" stroke-dasharray="5,2" d="M473.406,-480.111C470.405,-478.712 467.389,-477.319 464.496,-476 424.296,-457.677 408.599,-462.825 373.496,-436 365.659,-430.011 358.454,-422.083 352.473,-414.448"/>
<polygon fill="black" stroke="black" points="355.26,-412.331 346.492,-406.384 349.638,-416.501 355.26,-412.331"/>
</g>
<!-- bower -->
<g id="node9" class="node"><title>bower</title>
<polygon fill="#92c5de" stroke="black" points="789.496,-406 735.496,-406 735.496,-370 789.496,-370 789.496,-406"/>
<text text-anchor="middle" x="762.496" y="-383.8" font-family="Times,serif" font-size="14.00">bower</text>
</g>
<!-- pulp&#45;&gt;bower -->
<g id="edge22" class="edge"><title>pulp&#45;&gt;bower</title>
<path fill="none" stroke="black" stroke-dasharray="5,2" d="M527.591,-480.964C532.18,-479.158 536.936,-477.426 541.496,-476 621.786,-450.899 655.45,-481.044 726.496,-436 734.911,-430.665 742.115,-422.631 747.818,-414.707"/>
<polygon fill="black" stroke="black" points="750.794,-416.554 753.405,-406.285 744.96,-412.684 750.794,-416.554"/>
</g>
<!-- browserify -->
<g id="node10" class="node"><title>browserify</title>
<polygon fill="#92c5de" stroke="black" points="717.645,-406 641.347,-406 641.347,-370 717.645,-370 717.645,-406"/>
<text text-anchor="middle" x="679.496" y="-383.8" font-family="Times,serif" font-size="14.00">browserify</text>
</g>
<!-- pulp&#45;&gt;browserify -->
<g id="edge23" class="edge"><title>pulp&#45;&gt;browserify</title>
<path fill="none" stroke="black" stroke-dasharray="5,2" d="M514.745,-475.983C519.471,-470.291 524.739,-463.896 529.496,-458 534.465,-451.842 533.531,-447.755 540.496,-444 577.794,-423.894 597.365,-454.475 635.496,-436 645.711,-431.051 654.745,-422.633 661.928,-414.277"/>
<polygon fill="black" stroke="black" points="664.715,-416.396 668.226,-406.399 659.247,-412.024 664.715,-416.396"/>
</g>
<!-- js2 -->
<g id="node18" class="node"><title>js2</title>
<ellipse fill="none" stroke="black" cx="588.496" cy="-296" rx="58.0236" ry="18"/>
<text text-anchor="middle" x="588.496" y="-291.8" font-family="Times,serif" font-size="14.00">MyModule.js</text>
</g>
<!-- psc_make&#45;&gt;js2 -->
<g id="edge11" class="edge"><title>psc_make&#45;&gt;js2</title>
<path fill="none" stroke="black" d="M588.496,-369.647C588.496,-356.823 588.496,-339.108 588.496,-324.381"/>
<polygon fill="black" stroke="black" points="591.996,-324.3 588.496,-314.3 584.996,-324.3 591.996,-324.3"/>
<text text-anchor="middle" x="598.603" y="-334.8" font-family="Times,serif" font-size="14.00">gen</text>
</g>
<!-- externs_purs -->
<g id="node19" class="node"><title>externs_purs</title>
<ellipse fill="none" stroke="black" cx="323.496" cy="-296" rx="95.1752" ry="18"/>
<text text-anchor="middle" x="323.496" y="-291.8" font-family="Times,serif" font-size="14.00">MyModule/externs.purs</text>
</g>
<!-- psc_make&#45;&gt;externs_purs -->
<g id="edge12" class="edge"><title>psc_make&#45;&gt;externs_purs</title>
<path fill="none" stroke="black" d="M570.695,-369.802C563.207,-363.656 554.025,-357.412 544.496,-354 506.546,-340.413 399.285,-364.128 363.282,-346 353.047,-340.846 344.534,-331.726 338.045,-322.74"/>
<polygon fill="black" stroke="black" points="340.895,-320.703 332.454,-314.3 335.059,-324.57 340.895,-320.703"/>
<text text-anchor="middle" x="373.603" y="-334.8" font-family="Times,serif" font-size="14.00">gen</text>
</g>
<!-- psc_ide -->
<g id="node4" class="node"><title>psc_ide</title>
<polygon fill="#fddbc7" stroke="black" points="698.926,-122 642.067,-122 642.067,-86 698.926,-86 698.926,-122"/>
<text text-anchor="middle" x="670.496" y="-99.8" font-family="Times,serif" font-size="14.00">psc&#45;ide</text>
</g>
<!-- completions -->
<g id="node23" class="node"><title>completions</title>
<ellipse fill="none" stroke="black" cx="613.496" cy="-18" rx="53.1711" ry="18"/>
<text text-anchor="middle" x="613.496" y="-13.8" font-family="Times,serif" font-size="14.00">completions</text>
</g>
<!-- psc_ide&#45;&gt;completions -->
<g id="edge15" class="edge"><title>psc_ide&#45;&gt;completions</title>
<path fill="none" stroke="black" d="M658.686,-85.5951C650.554,-73.6115 639.623,-57.5031 630.549,-44.1309"/>
<polygon fill="black" stroke="black" points="633.414,-42.1189 624.903,-35.8094 627.621,-46.0494 633.414,-42.1189"/>
<text text-anchor="middle" x="655.603" y="-56.8" font-family="Times,serif" font-size="14.00">gen</text>
</g>
<!-- type_info -->
<g id="node24" class="node"><title>type_info</title>
<ellipse fill="none" stroke="black" cx="728.496" cy="-18" rx="43.9992" ry="18"/>
<text text-anchor="middle" x="728.496" y="-13.8" font-family="Times,serif" font-size="14.00">type_info</text>
</g>
<!-- psc_ide&#45;&gt;type_info -->
<g id="edge16" class="edge"><title>psc_ide&#45;&gt;type_info</title>
<path fill="none" stroke="black" d="M682.514,-85.5951C690.843,-73.5326 702.057,-57.291 711.326,-43.8673"/>
<polygon fill="black" stroke="black" points="714.284,-45.7429 717.086,-35.5252 708.524,-41.7655 714.284,-45.7429"/>
<text text-anchor="middle" x="713.603" y="-56.8" font-family="Times,serif" font-size="14.00">gen</text>
</g>
<!-- module_docs -->
<g id="node20" class="node"><title>module_docs</title>
<ellipse fill="none" stroke="black" cx="146.496" cy="-296" rx="63.3276" ry="18"/>
<text text-anchor="middle" x="146.496" y="-291.8" font-family="Times,serif" font-size="14.00">MyModule.md</text>
</g>
<!-- psc_docs&#45;&gt;module_docs -->
<g id="edge19" class="edge"><title>psc_docs&#45;&gt;module_docs</title>
<path fill="none" stroke="black" d="M316.272,-369.947C309.397,-364.39 301.392,-358.499 293.496,-354 263.369,-336.833 227.062,-322.698 198.069,-312.799"/>
<polygon fill="black" stroke="black" points="199.131,-309.463 188.537,-309.605 196.907,-316.1 199.131,-309.463"/>
<text text-anchor="middle" x="288.603" y="-334.8" font-family="Times,serif" font-size="14.00">gen</text>
</g>
<!-- ETAGS -->
<g id="node22" class="node"><title>ETAGS</title>
<ellipse fill="none" stroke="black" cx="474.496" cy="-296" rx="37.7965" ry="18"/>
<text text-anchor="middle" x="474.496" y="-291.8" font-family="Times,serif" font-size="14.00">ETAGS</text>
</g>
<!-- psc_docs&#45;&gt;ETAGS -->
<g id="edge21" class="edge"><title>psc_docs&#45;&gt;ETAGS</title>
<path fill="none" stroke="black" d="M353.826,-369.769C359.879,-364.442 366.785,-358.735 373.496,-354 394.658,-339.069 420.053,-324.752 440.084,-314.202"/>
<polygon fill="black" stroke="black" points="441.9,-317.202 449.16,-309.485 438.672,-310.991 441.9,-317.202"/>
<text text-anchor="middle" x="416.603" y="-334.8" font-family="Times,serif" font-size="14.00">gen</text>
</g>
<!-- TAGS -->
<g id="node26" class="node"><title>TAGS</title>
<ellipse fill="none" stroke="black" cx="32.4962" cy="-296" rx="32.4923" ry="18"/>
<text text-anchor="middle" x="32.4962" y="-291.8" font-family="Times,serif" font-size="14.00">TAGS</text>
</g>
<!-- psc_docs&#45;&gt;TAGS -->
<g id="edge20" class="edge"><title>psc_docs&#45;&gt;TAGS</title>
<path fill="none" stroke="black" d="M318.081,-369.821C311.007,-363.833 302.405,-357.694 293.496,-354 266.115,-342.645 256.53,-350.821 227.282,-346 158.828,-334.717 140.867,-334.206 74.4962,-314 71.9046,-313.211 69.2503,-312.327 66.597,-311.387"/>
<polygon fill="black" stroke="black" points="67.6984,-308.062 57.1065,-307.812 65.231,-314.613 67.6984,-308.062"/>
<text text-anchor="middle" x="237.603" y="-334.8" font-family="Times,serif" font-size="14.00">gen</text>
</g>
<!-- psc_publish -->
<g id="node6" class="node"><title>psc_publish</title>
<polygon fill="#fddbc7" stroke="black" points="455.549,-512 375.443,-512 375.443,-476 455.549,-476 455.549,-512"/>
<text text-anchor="middle" x="415.496" y="-489.8" font-family="Times,serif" font-size="14.00">psc&#45;publish</text>
</g>
<!-- pursuit_json_docs -->
<g id="node25" class="node"><title>pursuit_json_docs</title>
<ellipse fill="none" stroke="black" cx="210.496" cy="-388" rx="74.4362" ry="18"/>
<text text-anchor="middle" x="210.496" y="-383.8" font-family="Times,serif" font-size="14.00">pursuit_json_docs</text>
</g>
<!-- psc_publish&#45;&gt;pursuit_json_docs -->
<g id="edge17" class="edge"><title>psc_publish&#45;&gt;pursuit_json_docs</title>
<path fill="none" stroke="black" d="M375.944,-475.968C351.361,-465.1 319.261,-450.396 291.496,-436 276.104,-428.019 259.48,-418.532 245.321,-410.178"/>
<polygon fill="black" stroke="black" points="246.795,-406.982 236.411,-404.879 243.217,-412.999 246.795,-406.982"/>
<text text-anchor="middle" x="345.603" y="-446.8" font-family="Times,serif" font-size="14.00">gen</text>
</g>
<!-- psc_bundle -->
<g id="node7" class="node"><title>psc_bundle</title>
<polygon fill="#fddbc7" stroke="black" points="463.425,-406 385.567,-406 385.567,-370 463.425,-370 463.425,-406"/>
<text text-anchor="middle" x="424.496" y="-383.8" font-family="Times,serif" font-size="14.00">psc&#45;bundle</text>
</g>
<!-- psci -->
<g id="node8" class="node"><title>psci</title>
<polygon fill="#fddbc7" stroke="black" points="357.496,-512 303.496,-512 303.496,-476 357.496,-476 357.496,-512"/>
<text text-anchor="middle" x="330.496" y="-489.8" font-family="Times,serif" font-size="14.00">psci</text>
</g>
<!-- js_bundle -->
<g id="node21" class="node"><title>js_bundle</title>
<ellipse fill="none" stroke="black" cx="746.496" cy="-296" rx="81.6612" ry="18"/>
<text text-anchor="middle" x="746.496" y="-291.8" font-family="Times,serif" font-size="14.00">MyProject.bundle.js</text>
</g>
<!-- browserify&#45;&gt;js_bundle -->
<g id="edge14" class="edge"><title>browserify&#45;&gt;js_bundle</title>
<path fill="none" stroke="black" d="M692.414,-369.647C702.396,-356.239 716.357,-337.486 727.594,-322.391"/>
<polygon fill="black" stroke="black" points="730.681,-324.106 733.845,-313.994 725.066,-319.926 730.681,-324.106"/>
<text text-anchor="middle" x="729.603" y="-334.8" font-family="Times,serif" font-size="14.00">gen</text>
</g>
<!-- purs -->
<g id="node11" class="node"><title>purs</title>
<ellipse fill="none" stroke="black" cx="626.496" cy="-600" rx="80.2238" ry="18"/>
<text text-anchor="middle" x="626.496" y="-595.8" font-family="Times,serif" font-size="14.00">src/MyModule.purs</text>
</g>
<!-- purs&#45;&gt;psc -->
<g id="edge9" class="edge"><title>purs&#45;&gt;psc</title>
<path fill="none" stroke="black" d="M632.457,-581.89C642.308,-550.145 657.62,-481.915 622.496,-444 610.655,-431.218 559.706,-444.501 544.496,-436 535.667,-431.065 528.307,-422.979 522.59,-414.894"/>
<polygon fill="black" stroke="black" points="525.395,-412.786 517.04,-406.27 519.509,-416.574 525.395,-412.786"/>
</g>
<!-- purs&#45;&gt;psc_make -->
<g id="edge10" class="edge"><title>purs&#45;&gt;psc_make</title>
<path fill="none" stroke="black" d="M640.955,-582.283C644.826,-576.816 648.49,-570.475 650.496,-564 666.285,-513.057 681.399,-487.468 650.496,-444 644.225,-435.179 636.389,-442.169 627.496,-436 619.179,-430.231 611.641,-422.228 605.458,-414.46"/>
<polygon fill="black" stroke="black" points="608.101,-412.15 599.308,-406.24 602.496,-416.344 608.101,-412.15"/>
<text text-anchor="middle" x="678.603" y="-489.8" font-family="Times,serif" font-size="14.00">gen</text>
</g>
<!-- purs&#45;&gt;psc_ide -->
<g id="edge5" class="edge"><title>purs&#45;&gt;psc_ide</title>
<path fill="none" stroke="black" d="M668.414,-584.59C734.754,-561.168 856.496,-515.405 856.496,-495 856.496,-495 856.496,-495 856.496,-189 856.496,-124.757 763.193,-109.378 708.752,-105.873"/>
<polygon fill="black" stroke="black" points="708.92,-102.377 698.746,-105.333 708.543,-109.367 708.92,-102.377"/>
<text text-anchor="middle" x="879.041" y="-334.8" font-family="Times,serif" font-size="14.00">read_by</text>
</g>
<!-- purs&#45;&gt;psc_docs -->
<g id="edge18" class="edge"><title>purs&#45;&gt;psc_docs</title>
<path fill="none" stroke="black" d="M616.097,-581.956C597.259,-551.607 557.495,-490.056 536.496,-476 532.622,-473.407 377.432,-438.499 373.496,-436 364.909,-430.547 357.377,-422.485 351.332,-414.571"/>
<polygon fill="black" stroke="black" points="354.016,-412.305 345.376,-406.173 348.306,-416.354 354.016,-412.305"/>
<text text-anchor="middle" x="613.041" y="-489.8" font-family="Times,serif" font-size="14.00">read_by</text>
</g>
<!-- purs&#45;&gt;psc_publish -->
<g id="edge8" class="edge"><title>purs&#45;&gt;psc_publish</title>
<path fill="none" stroke="black" d="M568.553,-587.459C535.739,-578.862 495.239,-564.612 464.496,-542 455.523,-535.4 446.497,-527.268 438.681,-519.635"/>
<polygon fill="black" stroke="black" points="440.852,-516.855 431.314,-512.243 435.894,-521.796 440.852,-516.855"/>
<text text-anchor="middle" x="524.041" y="-552.8" font-family="Times,serif" font-size="14.00">read_by</text>
</g>
<!-- bower_json -->
<g id="node12" class="node"><title>bower_json</title>
<ellipse fill="none" stroke="black" cx="773.496" cy="-600" rx="48.8528" ry="18"/>
<text text-anchor="middle" x="773.496" y="-595.8" font-family="Times,serif" font-size="14.00">bower.json</text>
</g>
<!-- bower_json&#45;&gt;bower -->
<g id="edge13" class="edge"><title>bower_json&#45;&gt;bower</title>
<path fill="none" stroke="black" d="M772.596,-581.815C770.69,-545.422 766.232,-460.323 763.929,-416.363"/>
<polygon fill="black" stroke="black" points="767.412,-415.931 763.393,-406.128 760.421,-416.298 767.412,-415.931"/>
</g>
<!-- pursuit -->
<g id="node13" class="node"><title>pursuit</title>
<ellipse fill="none" stroke="black" cx="919.496" cy="-190" rx="35.3389" ry="18"/>
<text text-anchor="middle" x="919.496" y="-185.8" font-family="Times,serif" font-size="14.00">Pursuit</text>
</g>
<!-- pursuit&#45;&gt;psc_ide -->
<g id="edge6" class="edge"><title>pursuit&#45;&gt;psc_ide</title>
<path fill="none" stroke="black" d="M907.637,-172.72C898.694,-161.694 885.441,-147.768 870.496,-140 819.028,-113.249 751.09,-106.427 709.121,-104.967"/>
<polygon fill="black" stroke="black" points="709.125,-101.466 699.037,-104.703 708.941,-108.464 709.125,-101.466"/>
<text text-anchor="middle" x="912.041" y="-142.8" font-family="Times,serif" font-size="14.00">read_by</text>
</g>
<!-- emacs -->
<g id="node14" class="node"><title>emacs</title>
<polygon fill="#f4a582" stroke="black" points="656.496,-208 602.496,-208 602.496,-172 656.496,-172 656.496,-208"/>
<text text-anchor="middle" x="629.496" y="-185.8" font-family="Times,serif" font-size="14.00">emacs</text>
</g>
<!-- emacs&#45;&gt;psc_ide -->
<g id="edge1" class="edge"><title>emacs&#45;&gt;psc_ide</title>
<path fill="none" stroke="black" stroke-dasharray="5,2" d="M637.991,-171.595C643.691,-159.917 651.303,-144.322 657.728,-131.159"/>
<polygon fill="black" stroke="black" points="660.911,-132.617 662.152,-122.095 654.62,-129.547 660.911,-132.617"/>
</g>
<!-- vim -->
<g id="node15" class="node"><title>vim</title>
<polygon fill="#f4a582" stroke="black" points="584.496,-208 530.496,-208 530.496,-172 584.496,-172 584.496,-208"/>
<text text-anchor="middle" x="557.496" y="-185.8" font-family="Times,serif" font-size="14.00">vim</text>
</g>
<!-- atom -->
<g id="node16" class="node"><title>atom</title>
<polygon fill="#f4a582" stroke="black" points="512.496,-208 458.496,-208 458.496,-172 512.496,-172 512.496,-208"/>
<text text-anchor="middle" x="485.496" y="-185.8" font-family="Times,serif" font-size="14.00">atom</text>
</g>
<!-- atom&#45;&gt;psc_ide -->
<g id="edge2" class="edge"><title>atom&#45;&gt;psc_ide</title>
<path fill="none" stroke="black" stroke-dasharray="5,2" d="M508.628,-171.788C512.808,-169.013 517.204,-166.301 521.496,-164 557.785,-144.55 601.909,-127.872 632.683,-117.26"/>
<polygon fill="black" stroke="black" points="633.838,-120.564 642.179,-114.031 631.585,-113.936 633.838,-120.564"/>
</g>
<!-- intellij -->
<g id="node17" class="node"><title>intellij</title>
<polygon fill="#f4a582" stroke="black" points="440.496,-208 386.496,-208 386.496,-172 440.496,-172 440.496,-208"/>
<text text-anchor="middle" x="413.496" y="-185.8" font-family="Times,serif" font-size="14.00">intellij</text>
</g>
<!-- js2&#45;&gt;psc_ide -->
<g id="edge3" class="edge"><title>js2&#45;&gt;psc_ide</title>
<path fill="none" stroke="black" d="M620.887,-280.996C638.351,-271.578 658.351,-257.328 668.496,-238 685.913,-204.821 682.053,-160.266 676.892,-132.088"/>
<polygon fill="black" stroke="black" points="680.296,-131.262 674.892,-122.149 673.434,-132.643 680.296,-131.262"/>
<text text-anchor="middle" x="704.041" y="-185.8" font-family="Times,serif" font-size="14.00">read_by</text>
</g>
<!-- externs_purs&#45;&gt;psc_ide -->
<g id="edge4" class="edge"><title>externs_purs&#45;&gt;psc_ide</title>
<path fill="none" stroke="black" d="M318.182,-277.652C310.875,-249.941 301.562,-195.6 329.406,-164 368.713,-119.392 551.024,-108.494 631.798,-105.845"/>
<polygon fill="black" stroke="black" points="632.152,-109.336 642.041,-105.535 631.94,-102.339 632.152,-109.336"/>
<text text-anchor="middle" x="352.041" y="-185.8" font-family="Times,serif" font-size="14.00">read_by</text>
</g>
<!-- ETAGS&#45;&gt;emacs -->
<g id="edge7" class="edge"><title>ETAGS&#45;&gt;emacs</title>
<path fill="none" stroke="black" d="M501.988,-283.609C532.254,-270.763 578.602,-250.092 593.496,-238 600.837,-232.04 607.552,-224.294 613.141,-216.815"/>
<polygon fill="black" stroke="black" points="616.256,-218.471 619.157,-208.281 610.534,-214.438 616.256,-218.471"/>
<text text-anchor="middle" x="603.041" y="-248.8" font-family="Times,serif" font-size="14.00">read_by</text>
</g>
</g>
</svg>
